<svg xmlns="http://www.w3.org/2000/svg" width="9" height="15" viewBox="0 0 9 15"><defs><clipPath id="ldeua"><path fill="#fff" d="M.068 14.933V.067h8.864v14.866zM1.756 1.134A.455.455 0 0 0 1.428 1a.455.455 0 0 0-.328.134.457.457 0 0 0 0 .65L6.869 7.5l-5.77 5.715a.457.457 0 0 0 0 .65c.182.18.476.18.657 0l6.108-6.04a.457.457 0 0 0 0-.65z"/></clipPath></defs><g><g><path d="M1.756 1.134A.455.455 0 0 0 1.428 1a.455.455 0 0 0-.328.134.457.457 0 0 0 0 .65L6.869 7.5l-5.77 5.715a.457.457 0 0 0 0 .65c.182.18.476.18.657 0l6.108-6.04a.457.457 0 0 0 0-.65z"/><path fill="#f45e1f" d="M1.756 1.134A.455.455 0 0 0 1.428 1a.455.455 0 0 0-.328.134.457.457 0 0 0 0 .65L6.869 7.5l-5.77 5.715a.457.457 0 0 0 0 .65c.182.18.476.18.657 0l6.108-6.04a.457.457 0 0 0 0-.65z"/><path fill="none" stroke="#f45e1f" stroke-linecap="round" stroke-linejoin="round" stroke-miterlimit="50" stroke-width="2" d="M1.756 1.134A.455.455 0 0 0 1.428 1a.455.455 0 0 0-.328.134.457.457 0 0 0 0 .65L6.869 7.5v0l-5.77 5.715a.457.457 0 0 0 0 .65c.182.18.476.18.657 0l6.108-6.04a.457.457 0 0 0 0-.65z" clip-path="url(&quot;#ldeua&quot;)"/></g></g></svg>