<svg xmlns="http://www.w3.org/2000/svg" width="6" height="12" viewBox="0 0 6 12"><defs><clipPath id="qdfga"><path fill="#fff" d="M.676.124A.373.373 0 0 0 .396 0a.373.373 0 0 0-.28.124.447.447 0 0 0 0 .6L5.036 6l-4.92 5.276a.446.446 0 0 0 0 .6.377.377 0 0 0 .56 0L5.884 6.3a.446.446 0 0 0 0-.6z"/></clipPath></defs><g><g opacity=".4"><path d="M.676.124A.373.373 0 0 0 .396 0a.373.373 0 0 0-.28.124.447.447 0 0 0 0 .6L5.036 6l-4.92 5.276a.446.446 0 0 0 0 .6.377.377 0 0 0 .56 0L5.884 6.3a.446.446 0 0 0 0-.6z"/><path fill="none" stroke="#fff" stroke-linecap="round" stroke-linejoin="round" stroke-miterlimit="50" stroke-width="2" d="M.676.124A.373.373 0 0 0 .396 0a.373.373 0 0 0-.28.124.447.447 0 0 0 0 .6L5.036 6v0l-4.92 5.276a.446.446 0 0 0 0 .6.377.377 0 0 0 .56 0L5.884 6.3a.446.446 0 0 0 0-.6z" clip-path="url(&quot;#qdfga&quot;)"/></g></g></svg>