<!DOCTYPE svg PUBLIC "-//W3C//DTD SVG 20010904//EN" "http://www.w3.org/TR/2001/REC-SVG-20010904/DTD/svg10.dtd">
<svg version="1.0" xmlns="http://www.w3.org/2000/svg" width="47px" height="20px" viewBox="0 0 470 200" preserveAspectRatio="xMidYMid meet">
<g id="layer101" fill="#fff" stroke="none">
 <path d="M14 179 c-13 -15 -16 -24 -8 -36 21 -33 40 -37 62 -15 27 27 27 27 2 52 -25 25 -32 25 -56 -1z"/>
 <path d="M360 104 c-17 -20 -17 -68 0 -88 19 -24 87 -21 100 3 15 29 12 67 -6 85 -20 20 -78 21 -94 0z m74 -27 c11 -18 0 -47 -21 -54 -12 -4 -43 23 -43 37 0 14 31 41 43 37 6 -2 15 -11 21 -20z"/>
 </g>

</svg>